<svg width="120" height="44" viewBox="0 0 120 44" fill="none" xmlns="http://www.w3.org/2000/svg">
<path d="M0 8.35201C0 5.94145 1.04152 3.64844 2.85682 2.06241V2.06241C4.37871 0.732752 6.33109 0 8.35201 0H111.955C113.785 0 115.561 0.624016 116.988 1.76905V1.76905C118.892 3.29593 120 5.60446 120 8.04493V22.5188C120 29.9954 114.494 36.3305 107.091 37.3724L62.0905 43.7058C60.7037 43.901 59.2963 43.901 57.9095 43.7058L12.9095 37.3724C5.50589 36.3305 0 29.9954 0 22.5188V8.35201Z" fill="#CE0505"/>
<path d="M13.208 11.2H25.304C25.48 11.2 25.632 11.264 25.76 11.392C25.888 11.52 25.952 11.672 25.952 11.848V15.496C25.952 15.672 25.888 15.824 25.76 15.952C25.632 16.08 25.48 16.144 25.304 16.144H18.44V17.92H24.824C25 17.92 25.152 17.984 25.28 18.112C25.408 18.24 25.472 18.392 25.472 18.568V22.192C25.472 22.368 25.408 22.52 25.28 22.648C25.152 22.776 25 22.84 24.824 22.84H18.44V27.352C18.44 27.528 18.376 27.68 18.248 27.808C18.12 27.936 17.968 28 17.792 28H13.208C13.032 28 12.88 27.936 12.752 27.808C12.624 27.68 12.56 27.528 12.56 27.352V11.848C12.56 11.672 12.624 11.52 12.752 11.392C12.88 11.264 13.032 11.2 13.208 11.2ZM27.7541 22.576V20.944C27.7541 19.12 28.4021 17.72 29.6981 16.744C30.9941 15.768 32.6661 15.28 34.7141 15.28C36.7621 15.28 38.4341 15.768 39.7301 16.744C41.0261 17.72 41.6741 19.12 41.6741 20.944V22.576C41.6741 24.416 41.0501 25.824 39.8021 26.8C38.5541 27.76 36.8581 28.24 34.7141 28.24C32.5701 28.24 30.8741 27.76 29.6261 26.8C28.3781 25.824 27.7541 24.416 27.7541 22.576ZM35.7941 22.768V20.752C35.7941 20.144 35.7141 19.72 35.5541 19.48C35.3941 19.24 35.1141 19.12 34.7141 19.12C34.3141 19.12 34.0341 19.24 33.8741 19.48C33.7141 19.72 33.6341 20.144 33.6341 20.752V22.768C33.6341 23.408 33.7141 23.84 33.8741 24.064C34.0341 24.288 34.3141 24.4 34.7141 24.4C35.1141 24.4 35.3941 24.28 35.5541 24.04C35.7141 23.8 35.7941 23.376 35.7941 22.768ZM43.3634 22.576V20.944C43.3634 19.12 44.0114 17.72 45.3074 16.744C46.6034 15.768 48.2754 15.28 50.3234 15.28C52.3714 15.28 54.0434 15.768 55.3394 16.744C56.6354 17.72 57.2834 19.12 57.2834 20.944V22.576C57.2834 24.416 56.6594 25.824 55.4114 26.8C54.1634 27.76 52.4674 28.24 50.3234 28.24C48.1794 28.24 46.4834 27.76 45.2354 26.8C43.9874 25.824 43.3634 24.416 43.3634 22.576ZM51.4034 22.768V20.752C51.4034 20.144 51.3234 19.72 51.1634 19.48C51.0034 19.24 50.7234 19.12 50.3234 19.12C49.9234 19.12 49.6434 19.24 49.4834 19.48C49.3234 19.72 49.2434 20.144 49.2434 20.752V22.768C49.2434 23.408 49.3234 23.84 49.4834 24.064C49.6434 24.288 49.9234 24.4 50.3234 24.4C50.7234 24.4 51.0034 24.28 51.1634 24.04C51.3234 23.8 51.4034 23.376 51.4034 22.768ZM60.3408 11.2H67.2528C69.5888 11.2 71.5088 11.784 73.0128 12.952C74.5328 14.104 75.2928 15.72 75.2928 17.8V21.376C75.2928 23.552 74.5568 25.2 73.0848 26.32C71.6128 27.44 69.6768 28 67.2768 28H60.3408C60.1648 28 60.0128 27.936 59.8848 27.808C59.7568 27.68 59.6928 27.528 59.6928 27.352V11.848C59.6928 11.672 59.7568 11.52 59.8848 11.392C60.0128 11.264 60.1648 11.2 60.3408 11.2ZM65.6928 15.88V23.32H67.2528C67.7968 23.32 68.2288 23.16 68.5488 22.84C68.8848 22.504 69.0528 22.016 69.0528 21.376V17.8C69.0528 16.52 68.4528 15.88 67.2528 15.88H65.6928ZM89.4952 23.872C89.6712 23.872 89.8232 23.936 89.9512 24.064C90.0792 24.192 90.1432 24.344 90.1432 24.52V27.352C90.1432 27.528 90.0792 27.68 89.9512 27.808C89.8232 27.936 89.6712 28 89.4952 28H78.2152C78.0392 28 77.8872 27.936 77.7592 27.808C77.6312 27.68 77.5672 27.528 77.5672 27.352V24.592C77.5672 24.256 77.6952 23.976 77.9512 23.752L82.7272 19.648H78.3832C78.2072 19.648 78.0552 19.584 77.9272 19.456C77.7992 19.328 77.7352 19.176 77.7352 19V16.168C77.7352 15.992 77.7992 15.84 77.9272 15.712C78.0552 15.584 78.2072 15.52 78.3832 15.52H88.9912C89.1672 15.52 89.3192 15.584 89.4472 15.712C89.5752 15.84 89.6392 15.992 89.6392 16.168V19.192C89.6392 19.464 89.5272 19.696 89.3032 19.888L84.7432 23.872H89.4952ZM102.384 28H97.6797C97.5038 28 97.3518 27.936 97.2238 27.808C97.0958 27.68 97.0318 27.528 97.0318 27.352V22.624L91.6318 11.944C91.5998 11.88 91.5838 11.792 91.5838 11.68C91.5838 11.568 91.6318 11.464 91.7278 11.368C91.8398 11.256 91.9678 11.2 92.1118 11.2H96.6238C97.1038 11.2 97.4398 11.4 97.6318 11.8L100.032 16.624L102.432 11.8C102.624 11.4 102.96 11.2 103.44 11.2H107.952C108.096 11.2 108.216 11.256 108.312 11.368C108.424 11.464 108.48 11.568 108.48 11.68C108.48 11.792 108.464 11.88 108.432 11.944L103.032 22.624V27.352C103.032 27.528 102.968 27.68 102.84 27.808C102.712 27.936 102.56 28 102.384 28Z" fill="white"/>
</svg>
